<svg xmlns="http://www.w3.org/2000/svg" width="26.109" height="35.227" viewBox="0 0 26.109 35.227"><path d="M18.867-28.711a7.4,7.4,0,0,0-6.352,3.082q-2.25,3.082-2.25,8.59,0,11.461,8.6,11.461a27.19,27.19,0,0,0,8.742-1.8v6.094A24.278,24.278,0,0,1,18.188.469Q10.711.469,6.75-4.066T2.789-17.086a21.26,21.26,0,0,1,1.945-9.363,14.06,14.06,0,0,1,5.59-6.164,16.536,16.536,0,0,1,8.543-2.145A23.057,23.057,0,0,1,28.9-32.344l-2.344,5.906a38.8,38.8,0,0,0-3.867-1.594A11.537,11.537,0,0,0,18.867-28.711Z" transform="translate(-2.789 34.758)" fill="#fff"/></svg>