<svg xmlns="http://www.w3.org/2000/svg" width="97.338" height="35.227" viewBox="0 0 97.338 35.227"><path d="M25.289,0,22.8-8.156H10.313L7.828,0H0L12.094-34.406h8.883L33.117,0ZM21.07-14.25q-3.445-11.086-3.879-12.539t-.621-2.3q-.773,3-4.43,14.836Zm17.9-20.016H49.63q7.289,0,10.582,2.074t3.293,6.6a8.313,8.313,0,0,1-1.441,5.039,5.758,5.758,0,0,1-3.832,2.367v.234a7.549,7.549,0,0,1,4.7,2.719,8.845,8.845,0,0,1,1.441,5.3,8.728,8.728,0,0,1-3.387,7.313Q57.6,0,51.786,0H38.966ZM46.231-20.7H50.45a7.713,7.713,0,0,0,4.277-.914,3.41,3.41,0,0,0,1.324-3.023,3.025,3.025,0,0,0-1.441-2.824,9.264,9.264,0,0,0-4.559-.855h-3.82Zm0,5.766V-6h4.734A7.023,7.023,0,0,0,55.4-7.148a4.239,4.239,0,0,0,1.43-3.516q0-4.266-6.094-4.266ZM87.306-28.711a7.4,7.4,0,0,0-6.352,3.082q-2.25,3.082-2.25,8.59,0,11.461,8.6,11.461a27.19,27.19,0,0,0,8.742-1.8v6.094A24.278,24.278,0,0,1,86.627.469q-7.477,0-11.437-4.535t-3.961-13.02a21.26,21.26,0,0,1,1.945-9.363,14.06,14.06,0,0,1,5.59-6.164,16.536,16.536,0,0,1,8.543-2.145,23.057,23.057,0,0,1,10.031,2.414l-2.344,5.906a38.8,38.8,0,0,0-3.867-1.594A11.537,11.537,0,0,0,87.306-28.711Z" transform="translate(0 34.758)" fill="#fff"/></svg>