<svg xmlns="http://www.w3.org/2000/svg" width="25.406" height="34.266" viewBox="0 0 25.406 34.266"><path d="M4.313-34.266H14.977q7.289,0,10.582,2.074t3.293,6.6a8.313,8.313,0,0,1-1.441,5.039,5.758,5.758,0,0,1-3.832,2.367v.234a7.549,7.549,0,0,1,4.7,2.719,8.845,8.845,0,0,1,1.441,5.3,8.728,8.728,0,0,1-3.387,7.313Q22.945,0,17.133,0H4.313ZM11.578-20.7H15.8a7.713,7.713,0,0,0,4.277-.914A3.41,3.41,0,0,0,21.4-24.633a3.025,3.025,0,0,0-1.441-2.824,9.264,9.264,0,0,0-4.559-.855h-3.82Zm0,5.766V-6h4.734a7.023,7.023,0,0,0,4.43-1.148,4.239,4.239,0,0,0,1.43-3.516q0-4.266-6.094-4.266Z" transform="translate(-4.313 34.266)" fill="#fff"/></svg>